<svg width="1871" height="879" viewBox="0 0 1871 879" fill="none" xmlns="http://www.w3.org/2000/svg">
<rect width="1871" height="879" rx="33" fill="white"/>
<path d="M230.169 557.372C271.72 557.372 300.768 536.403 317.312 494.467L377.331 517.551C364.25 549.484 345.206 573.146 320.198 588.535C295.19 603.925 265.18 611.62 230.169 611.62C177.075 611.62 136.1 596.615 107.245 566.605C78.3892 536.596 63.9615 494.659 63.9615 440.796C63.9615 386.548 77.8121 344.996 105.513 316.14C133.599 286.9 174.189 272.28 227.283 272.28C266.142 272.28 297.69 280.167 321.929 295.942C346.167 311.331 363.096 334.031 372.714 364.04L312.118 380.777C307.116 364.233 296.921 351.152 281.531 341.533C266.526 331.53 248.828 326.528 228.437 326.528C197.274 326.528 173.612 336.339 157.453 355.961C141.294 375.198 133.214 403.476 133.214 440.796C133.214 478.5 141.486 507.356 158.03 527.362C174.959 547.368 199.005 557.372 230.169 557.372Z" fill="#1E1E1E"/>
<path d="M418.706 308.061V260.161H484.497V308.061H418.706ZM418.706 607.003V353.652H484.497V607.003H418.706ZM611.4 611.043C592.163 611.043 577.351 605.849 566.963 595.461C556.575 585.073 551.381 569.106 551.381 547.561V398.09H519.063V353.652H554.267L575.042 294.787H616.017V353.652H663.917V398.09H616.017V529.67C616.017 541.982 618.326 551.216 622.942 557.372C627.944 563.143 635.254 566.028 644.872 566.028C649.874 566.028 657.184 564.874 666.803 562.566V603.54C650.644 608.542 632.176 611.043 611.4 611.043ZM701.485 607.003V413.095C701.485 399.244 701.292 387.702 700.908 378.468C700.523 369.234 700.138 360.962 699.753 353.652H762.081C762.466 356.346 763.043 365.002 763.812 379.622C764.967 393.858 765.544 403.284 765.544 407.901H766.121C772.661 390.203 778.433 377.699 783.434 370.389C788.436 363.079 794.207 357.692 800.747 354.23C807.673 350.767 816.329 349.036 826.717 349.036C835.182 349.036 841.914 350.19 846.916 352.498V407.324C836.143 405.015 826.91 403.861 819.215 403.861C802.671 403.861 789.782 410.594 780.549 424.06C771.7 437.141 767.275 456.762 767.275 482.925V607.003H701.485ZM1018.49 611.62C973.09 611.62 938.271 600.655 914.032 578.725C890.179 556.41 878.252 524.669 878.252 483.502V277.474H946.928V478.308C946.928 504.47 953.083 524.284 965.395 537.75C978.091 550.831 996.366 557.372 1020.22 557.372C1044.84 557.372 1063.7 550.446 1076.78 536.596C1090.24 522.36 1096.98 502.162 1096.98 475.999V277.474H1166.23V480.039C1166.23 521.976 1153.34 554.486 1127.56 577.57C1101.78 600.27 1065.43 611.62 1018.49 611.62Z" fill="#1D1D1D"/>
<rect x="1532.22" y="536.225" width="70.7783" height="70.7783" fill="#6E75FF"/>
<path d="M1398.21 276.438L1315.11 407.441L1360.7 449.57L1470.35 276.438L1398.21 276.438Z" fill="#6E75FF"/>
<path d="M1262.8 607.003L1331.87 482.707L1417.26 607.003H1490.21L1262.8 276.438L1190.03 276.438L1295.29 429.522L1190.66 607.003H1262.8Z" fill="#1D1D1D"/>
<path d="M892.177 685.564V753.173H883.35V722.521H848.915V753.173H840.088V685.564H848.915V715.246H883.35V685.564H892.177ZM922.866 692.742V715.343H947.504V722.618H922.866V745.898H950.414V753.173H914.039V685.467H950.414V692.742H922.866ZM1010.52 738.138H981.037L975.605 753.173H966.293L990.737 685.952H1000.92L1025.27 753.173H1015.96L1010.52 738.138ZM1008 730.96L995.781 696.816L983.559 730.96H1008ZM1051.54 745.995H1075.21V753.173H1042.71V685.564H1051.54V745.995ZM1132.98 685.564V692.742H1114.55V753.173H1105.73V692.742H1087.2V685.564H1132.98ZM1202.73 685.564V753.173H1193.9V722.521H1159.47V753.173H1150.64V685.564H1159.47V715.246H1193.9V685.564H1202.73ZM1278.68 753.852C1274.22 753.852 1270.21 753.076 1266.65 751.524C1263.16 749.907 1260.41 747.709 1258.41 744.928C1256.4 742.083 1255.37 738.817 1255.3 735.131H1264.71C1265.03 738.3 1266.33 740.983 1268.59 743.182C1270.92 745.316 1274.28 746.383 1278.68 746.383C1282.88 746.383 1286.18 745.348 1288.57 743.279C1291.03 741.145 1292.26 738.429 1292.26 735.131C1292.26 732.544 1291.55 730.443 1290.12 728.826C1288.7 727.209 1286.92 725.981 1284.79 725.14C1282.66 724.299 1279.78 723.394 1276.16 722.424C1271.69 721.26 1268.11 720.096 1265.39 718.932C1262.74 717.768 1260.44 715.957 1258.5 713.5C1256.63 710.978 1255.69 707.615 1255.69 703.412C1255.69 699.726 1256.63 696.46 1258.5 693.615C1260.38 690.77 1263 688.571 1266.36 687.019C1269.79 685.467 1273.7 684.691 1278.1 684.691C1284.43 684.691 1289.61 686.275 1293.62 689.444C1297.69 692.613 1299.99 696.816 1300.5 702.054H1290.8C1290.48 699.467 1289.12 697.204 1286.73 695.264C1284.34 693.259 1281.17 692.257 1277.22 692.257C1273.54 692.257 1270.53 693.227 1268.2 695.167C1265.87 697.042 1264.71 699.694 1264.71 703.121C1264.71 705.578 1265.39 707.583 1266.75 709.135C1268.17 710.687 1269.88 711.883 1271.89 712.724C1273.96 713.5 1276.84 714.405 1280.52 715.44C1284.98 716.669 1288.57 717.897 1291.29 719.126C1294 720.29 1296.33 722.133 1298.27 724.655C1300.21 727.112 1301.18 730.475 1301.18 734.743C1301.18 738.041 1300.31 741.145 1298.56 744.055C1296.82 746.965 1294.23 749.325 1290.8 751.136C1287.38 752.947 1283.33 753.852 1278.68 753.852ZM1351.61 753.852C1345.34 753.852 1339.62 752.397 1334.44 749.487C1329.27 746.512 1325.17 742.406 1322.13 737.168C1319.15 731.865 1317.66 725.916 1317.66 719.32C1317.66 712.724 1319.15 706.807 1322.13 701.569C1325.17 696.266 1329.27 692.16 1334.44 689.25C1339.62 686.275 1345.34 684.788 1351.61 684.788C1357.95 684.788 1363.71 686.275 1368.88 689.25C1374.05 692.16 1378.13 696.234 1381.1 701.472C1384.08 706.71 1385.56 712.659 1385.56 719.32C1385.56 725.981 1384.08 731.93 1381.1 737.168C1378.13 742.406 1374.05 746.512 1368.88 749.487C1363.71 752.397 1357.95 753.852 1351.61 753.852ZM1351.61 746.189C1356.33 746.189 1360.57 745.09 1364.32 742.891C1368.14 740.692 1371.11 737.556 1373.24 733.482C1375.44 729.408 1376.54 724.687 1376.54 719.32C1376.54 713.888 1375.44 709.167 1373.24 705.158C1371.11 701.084 1368.17 697.948 1364.42 695.749C1360.67 693.55 1356.4 692.451 1351.61 692.451C1346.83 692.451 1342.56 693.55 1338.81 695.749C1335.06 697.948 1332.08 701.084 1329.89 705.158C1327.75 709.167 1326.68 713.888 1326.68 719.32C1326.68 724.687 1327.75 729.408 1329.89 733.482C1332.08 737.556 1335.06 740.692 1338.81 742.891C1342.63 745.09 1346.89 746.189 1351.61 746.189ZM1412.83 745.995H1436.5V753.173H1404.01V685.564H1412.83V745.995ZM1461.3 685.564V728.341C1461.3 734.355 1462.75 738.817 1465.66 741.727C1468.64 744.637 1472.74 746.092 1477.98 746.092C1483.16 746.092 1487.2 744.637 1490.11 741.727C1493.08 738.817 1494.57 734.355 1494.57 728.341V685.564H1503.4V728.244C1503.4 733.87 1502.27 738.623 1500 742.503C1497.74 746.318 1494.67 749.164 1490.79 751.039C1486.97 752.914 1482.67 753.852 1477.89 753.852C1473.1 753.852 1468.77 752.914 1464.89 751.039C1461.07 749.164 1458.03 746.318 1455.77 742.503C1453.57 738.623 1452.47 733.87 1452.47 728.244V685.564H1461.3ZM1566.52 685.564V692.742H1548.09V753.173H1539.27V692.742H1520.74V685.564H1566.52ZM1593.01 685.564V753.173H1584.18V685.564H1593.01ZM1645.49 753.852C1639.22 753.852 1633.5 752.397 1628.32 749.487C1623.15 746.512 1619.04 742.406 1616.01 737.168C1613.03 731.865 1611.54 725.916 1611.54 719.32C1611.54 712.724 1613.03 706.807 1616.01 701.569C1619.04 696.266 1623.15 692.16 1628.32 689.25C1633.5 686.275 1639.22 684.788 1645.49 684.788C1651.83 684.788 1657.59 686.275 1662.76 689.25C1667.93 692.16 1672.01 696.234 1674.98 701.472C1677.96 706.71 1679.44 712.659 1679.44 719.32C1679.44 725.981 1677.96 731.93 1674.98 737.168C1672.01 742.406 1667.93 746.512 1662.76 749.487C1657.59 752.397 1651.83 753.852 1645.49 753.852ZM1645.49 746.189C1650.21 746.189 1654.45 745.09 1658.2 742.891C1662.02 740.692 1664.99 737.556 1667.12 733.482C1669.32 729.408 1670.42 724.687 1670.42 719.32C1670.42 713.888 1669.32 709.167 1667.12 705.158C1664.99 701.084 1662.05 697.948 1658.3 695.749C1654.55 693.55 1650.28 692.451 1645.49 692.451C1640.71 692.451 1636.44 693.55 1632.69 695.749C1628.94 697.948 1625.96 701.084 1623.77 705.158C1621.63 709.167 1620.56 713.888 1620.56 719.32C1620.56 724.687 1621.63 729.408 1623.77 733.482C1625.96 737.556 1628.94 740.692 1632.69 742.891C1636.5 745.09 1640.77 746.189 1645.49 746.189ZM1751.04 753.173H1742.22L1706.71 699.338V753.173H1697.89V685.467H1706.71L1742.22 739.205V685.467H1751.04V753.173ZM1794.32 753.852C1789.85 753.852 1785.85 753.076 1782.29 751.524C1778.8 749.907 1776.05 747.709 1774.04 744.928C1772.04 742.083 1771 738.817 1770.94 735.131H1780.35C1780.67 738.3 1781.97 740.983 1784.23 743.182C1786.56 745.316 1789.92 746.383 1794.32 746.383C1798.52 746.383 1801.82 745.348 1804.21 743.279C1806.67 741.145 1807.9 738.429 1807.9 735.131C1807.9 732.544 1807.19 730.443 1805.76 728.826C1804.34 727.209 1802.56 725.981 1800.43 725.14C1798.29 724.299 1795.42 723.394 1791.79 722.424C1787.33 721.26 1783.74 720.096 1781.03 718.932C1778.38 717.768 1776.08 715.957 1774.14 713.5C1772.27 710.978 1771.33 707.615 1771.33 703.412C1771.33 699.726 1772.27 696.46 1774.14 693.615C1776.02 690.77 1778.63 688.571 1782 687.019C1785.42 685.467 1789.34 684.691 1793.73 684.691C1800.07 684.691 1805.25 686.275 1809.25 689.444C1813.33 692.613 1815.62 696.816 1816.14 702.054H1806.44C1806.12 699.467 1804.76 697.204 1802.37 695.264C1799.97 693.259 1796.81 692.257 1792.86 692.257C1789.18 692.257 1786.17 693.227 1783.84 695.167C1781.51 697.042 1780.35 699.694 1780.35 703.121C1780.35 705.578 1781.03 707.583 1782.39 709.135C1783.81 710.687 1785.52 711.883 1787.53 712.724C1789.6 713.5 1792.47 714.405 1796.16 715.44C1800.62 716.669 1804.21 717.897 1806.93 719.126C1809.64 720.29 1811.97 722.133 1813.91 724.655C1815.85 727.112 1816.82 730.475 1816.82 734.743C1816.82 738.041 1815.95 741.145 1814.2 744.055C1812.46 746.965 1809.87 749.325 1806.44 751.136C1803.01 752.947 1798.97 753.852 1794.32 753.852Z" fill="black"/>
</svg>
