<svg width="2278" height="2244" viewBox="0 0 2278 2244" fill="none" xmlns="http://www.w3.org/2000/svg">
<rect width="2278" height="2244" rx="33" fill="white"/>
<path d="M536.55 1245.93C578.101 1245.93 607.149 1224.97 623.693 1183.03L683.712 1206.11C670.631 1238.05 651.586 1261.71 626.578 1277.1C601.57 1292.49 571.561 1300.18 536.55 1300.18C483.456 1300.18 442.481 1285.18 413.625 1255.17C384.77 1225.16 370.342 1183.22 370.342 1129.36C370.342 1075.11 384.193 1033.56 411.894 1004.7C439.98 975.462 480.57 960.842 533.664 960.842C572.523 960.842 604.071 968.729 628.31 984.504C652.548 999.893 669.477 1022.59 679.095 1052.6L618.499 1069.34C613.497 1052.79 603.302 1039.71 587.912 1030.1C572.907 1020.09 555.209 1015.09 534.818 1015.09C503.654 1015.09 479.993 1024.9 463.834 1044.52C447.675 1063.76 439.595 1092.04 439.595 1129.36C439.595 1167.06 447.867 1195.92 464.411 1215.92C481.34 1235.93 505.386 1245.93 536.55 1245.93Z" fill="#1E1E1E"/>
<path d="M725.087 996.623V948.723H790.878V996.623H725.087ZM725.087 1295.56V1042.21H790.878V1295.56H725.087ZM917.781 1299.6C898.544 1299.6 883.732 1294.41 873.344 1284.02C862.956 1273.63 857.762 1257.67 857.762 1236.12V1086.65H825.444V1042.21H860.647L881.423 983.349H922.398V1042.21H970.298V1086.65H922.398V1218.23C922.398 1230.54 924.706 1239.78 929.323 1245.93C934.325 1251.7 941.635 1254.59 951.253 1254.59C956.255 1254.59 963.565 1253.44 973.183 1251.13V1292.1C957.024 1297.1 938.557 1299.6 917.781 1299.6ZM1007.87 1295.56V1101.66C1007.87 1087.81 1007.67 1076.26 1007.29 1067.03C1006.9 1057.8 1006.52 1049.52 1006.13 1042.21H1068.46C1068.85 1044.91 1069.42 1053.56 1070.19 1068.18C1071.35 1082.42 1071.92 1091.85 1071.92 1096.46H1072.5C1079.04 1078.76 1084.81 1066.26 1089.82 1058.95C1094.82 1051.64 1100.59 1046.25 1107.13 1042.79C1114.05 1039.33 1122.71 1037.6 1133.1 1037.6C1141.56 1037.6 1148.3 1038.75 1153.3 1041.06V1095.89C1142.52 1093.58 1133.29 1092.42 1125.6 1092.42C1109.05 1092.42 1096.16 1099.16 1086.93 1112.62C1078.08 1125.7 1073.66 1145.32 1073.66 1171.49V1295.56H1007.87ZM1324.87 1300.18C1279.47 1300.18 1244.65 1289.22 1220.41 1267.29C1196.56 1244.97 1184.63 1213.23 1184.63 1172.06V966.036H1253.31V1166.87C1253.31 1193.03 1259.46 1212.85 1271.78 1226.31C1284.47 1239.39 1302.75 1245.93 1326.6 1245.93C1351.22 1245.93 1370.08 1239.01 1383.16 1225.16C1396.62 1210.92 1403.36 1190.72 1403.36 1164.56V966.036H1472.61V1168.6C1472.61 1210.54 1459.72 1243.05 1433.94 1266.13C1408.17 1288.83 1371.81 1300.18 1324.87 1300.18Z" fill="#1D1D1D"/>
<rect x="1838.6" y="1224.79" width="70.7783" height="70.7783" fill="#6E75FF"/>
<path d="M1704.59 965L1621.49 1096L1667.08 1138.13L1776.73 965L1704.59 965Z" fill="#6E75FF"/>
<path d="M1569.18 1295.57L1638.25 1171.27L1723.64 1295.57H1796.59L1569.18 965L1496.41 965L1601.67 1118.08L1497.04 1295.57H1569.18Z" fill="#1D1D1D"/>
<path d="M1198.56 1374.13V1441.73H1189.73V1411.08H1155.3V1441.73H1146.47V1374.13H1155.3V1403.81H1189.73V1374.13H1198.56ZM1229.25 1381.3V1403.9H1253.89V1411.18H1229.25V1434.46H1256.8V1441.73H1220.42V1374.03H1256.8V1381.3H1229.25ZM1316.91 1426.7H1287.42L1281.99 1441.73H1272.67L1297.12 1374.51H1307.3L1331.65 1441.73H1322.34L1316.91 1426.7ZM1314.38 1419.52L1302.16 1385.38L1289.94 1419.52H1314.38ZM1357.92 1434.56H1381.59V1441.73H1349.09V1374.13H1357.92V1434.56ZM1439.37 1374.13V1381.3H1420.94V1441.73H1412.11V1381.3H1393.58V1374.13H1439.37ZM1509.11 1374.13V1441.73H1500.28V1411.08H1465.85V1441.73H1457.02V1374.13H1465.85V1403.81H1500.28V1374.13H1509.11ZM1585.06 1442.41C1580.6 1442.41 1576.59 1441.64 1573.03 1440.09C1569.54 1438.47 1566.79 1436.27 1564.79 1433.49C1562.78 1430.64 1561.75 1427.38 1561.68 1423.69H1571.09C1571.41 1426.86 1572.71 1429.55 1574.97 1431.74C1577.3 1433.88 1580.66 1434.94 1585.06 1434.94C1589.26 1434.94 1592.56 1433.91 1594.95 1431.84C1597.41 1429.71 1598.64 1426.99 1598.64 1423.69C1598.64 1421.11 1597.93 1419 1596.51 1417.39C1595.08 1415.77 1593.3 1414.54 1591.17 1413.7C1589.04 1412.86 1586.16 1411.96 1582.54 1410.99C1578.08 1409.82 1574.49 1408.66 1571.77 1407.49C1569.12 1406.33 1566.82 1404.52 1564.88 1402.06C1563.01 1399.54 1562.07 1396.18 1562.07 1391.97C1562.07 1388.29 1563.01 1385.02 1564.88 1382.18C1566.76 1379.33 1569.38 1377.13 1572.74 1375.58C1576.17 1374.03 1580.08 1373.25 1584.48 1373.25C1590.81 1373.25 1595.99 1374.84 1600 1378.01C1604.07 1381.17 1606.37 1385.38 1606.88 1390.62H1597.18C1596.86 1388.03 1595.5 1385.77 1593.11 1383.83C1590.72 1381.82 1587.55 1380.82 1583.6 1380.82C1579.92 1380.82 1576.91 1381.79 1574.58 1383.73C1572.26 1385.6 1571.09 1388.26 1571.09 1391.68C1571.09 1394.14 1571.77 1396.14 1573.13 1397.7C1574.55 1399.25 1576.26 1400.45 1578.27 1401.29C1580.34 1402.06 1583.22 1402.97 1586.9 1404C1591.36 1405.23 1594.95 1406.46 1597.67 1407.69C1600.39 1408.85 1602.71 1410.69 1604.65 1413.22C1606.59 1415.67 1607.56 1419.04 1607.56 1423.3C1607.56 1426.6 1606.69 1429.71 1604.94 1432.62C1603.2 1435.53 1600.61 1437.89 1597.18 1439.7C1593.76 1441.51 1589.72 1442.41 1585.06 1442.41ZM1657.99 1442.41C1651.72 1442.41 1646 1440.96 1640.83 1438.05C1635.65 1435.07 1631.55 1430.97 1628.51 1425.73C1625.53 1420.43 1624.04 1414.48 1624.04 1407.88C1624.04 1401.29 1625.53 1395.37 1628.51 1390.13C1631.55 1384.83 1635.65 1380.72 1640.83 1377.81C1646 1374.84 1651.72 1373.35 1657.99 1373.35C1664.33 1373.35 1670.09 1374.84 1675.26 1377.81C1680.43 1380.72 1684.51 1384.8 1687.48 1390.03C1690.46 1395.27 1691.94 1401.22 1691.94 1407.88C1691.94 1414.54 1690.46 1420.49 1687.48 1425.73C1684.51 1430.97 1680.43 1435.07 1675.26 1438.05C1670.09 1440.96 1664.33 1442.41 1657.99 1442.41ZM1657.99 1434.75C1662.72 1434.75 1666.95 1433.65 1670.7 1431.45C1674.52 1429.25 1677.49 1426.12 1679.63 1422.04C1681.82 1417.97 1682.92 1413.25 1682.92 1407.88C1682.92 1402.45 1681.82 1397.73 1679.63 1393.72C1677.49 1389.65 1674.55 1386.51 1670.8 1384.31C1667.05 1382.11 1662.78 1381.01 1657.99 1381.01C1653.21 1381.01 1648.94 1382.11 1645.19 1384.31C1641.44 1386.51 1638.47 1389.65 1636.27 1393.72C1634.13 1397.73 1633.07 1402.45 1633.07 1407.88C1633.07 1413.25 1634.13 1417.97 1636.27 1422.04C1638.47 1426.12 1641.44 1429.25 1645.19 1431.45C1649.01 1433.65 1653.27 1434.75 1657.99 1434.75ZM1719.21 1434.56H1742.88V1441.73H1710.39V1374.13H1719.21V1434.56ZM1767.68 1374.13V1416.9C1767.68 1422.92 1769.13 1427.38 1772.04 1430.29C1775.02 1433.2 1779.13 1434.65 1784.36 1434.65C1789.54 1434.65 1793.58 1433.2 1796.49 1430.29C1799.46 1427.38 1800.95 1422.92 1800.95 1416.9V1374.13H1809.78V1416.81C1809.78 1422.43 1808.65 1427.18 1806.38 1431.06C1804.12 1434.88 1801.05 1437.73 1797.17 1439.6C1793.35 1441.48 1789.05 1442.41 1784.27 1442.41C1779.48 1442.41 1775.15 1441.48 1771.27 1439.6C1767.45 1437.73 1764.41 1434.88 1762.15 1431.06C1759.95 1427.18 1758.85 1422.43 1758.85 1416.81V1374.13H1767.68ZM1872.91 1374.13V1381.3H1854.48V1441.73H1845.65V1381.3H1827.12V1374.13H1872.91ZM1899.39 1374.13V1441.73H1890.56V1374.13H1899.39ZM1951.87 1442.41C1945.6 1442.41 1939.88 1440.96 1934.71 1438.05C1929.53 1435.07 1925.43 1430.97 1922.39 1425.73C1919.41 1420.43 1917.92 1414.48 1917.92 1407.88C1917.92 1401.29 1919.41 1395.37 1922.39 1390.13C1925.43 1384.83 1929.53 1380.72 1934.71 1377.81C1939.88 1374.84 1945.6 1373.35 1951.87 1373.35C1958.21 1373.35 1963.97 1374.84 1969.14 1377.81C1974.31 1380.72 1978.39 1384.8 1981.36 1390.03C1984.34 1395.27 1985.82 1401.22 1985.82 1407.88C1985.82 1414.54 1984.34 1420.49 1981.36 1425.73C1978.39 1430.97 1974.31 1435.07 1969.14 1438.05C1963.97 1440.96 1958.21 1442.41 1951.87 1442.41ZM1951.87 1434.75C1956.6 1434.75 1960.83 1433.65 1964.58 1431.45C1968.4 1429.25 1971.37 1426.12 1973.51 1422.04C1975.7 1417.97 1976.8 1413.25 1976.8 1407.88C1976.8 1402.45 1975.7 1397.73 1973.51 1393.72C1971.37 1389.65 1968.43 1386.51 1964.68 1384.31C1960.93 1382.11 1956.66 1381.01 1951.87 1381.01C1947.09 1381.01 1942.82 1382.11 1939.07 1384.31C1935.32 1386.51 1932.35 1389.65 1930.15 1393.72C1928.01 1397.73 1926.95 1402.45 1926.95 1407.88C1926.95 1413.25 1928.01 1417.97 1930.15 1422.04C1932.35 1426.12 1935.32 1429.25 1939.07 1431.45C1942.89 1433.65 1947.15 1434.75 1951.87 1434.75ZM2057.42 1441.73H2048.6L2013.09 1387.9V1441.73H2004.27V1374.03H2013.09L2048.6 1427.77V1374.03H2057.42V1441.73ZM2100.7 1442.41C2096.24 1442.41 2092.23 1441.64 2088.67 1440.09C2085.18 1438.47 2082.43 1436.27 2080.42 1433.49C2078.42 1430.64 2077.39 1427.38 2077.32 1423.69H2086.73C2087.05 1426.86 2088.35 1429.55 2090.61 1431.74C2092.94 1433.88 2096.3 1434.94 2100.7 1434.94C2104.9 1434.94 2108.2 1433.91 2110.59 1431.84C2113.05 1429.71 2114.28 1426.99 2114.28 1423.69C2114.28 1421.11 2113.57 1419 2112.14 1417.39C2110.72 1415.77 2108.94 1414.54 2106.81 1413.7C2104.67 1412.86 2101.8 1411.96 2098.18 1410.99C2093.71 1409.82 2090.12 1408.66 2087.41 1407.49C2084.76 1406.33 2082.46 1404.52 2080.52 1402.06C2078.65 1399.54 2077.71 1396.18 2077.71 1391.97C2077.71 1388.29 2078.65 1385.02 2080.52 1382.18C2082.4 1379.33 2085.02 1377.13 2088.38 1375.58C2091.81 1374.03 2095.72 1373.25 2100.12 1373.25C2106.45 1373.25 2111.63 1374.84 2115.64 1378.01C2119.71 1381.17 2122.01 1385.38 2122.52 1390.62H2112.82C2112.5 1388.03 2111.14 1385.77 2108.75 1383.83C2106.36 1381.82 2103.19 1380.82 2099.24 1380.82C2095.56 1380.82 2092.55 1381.79 2090.22 1383.73C2087.89 1385.6 2086.73 1388.26 2086.73 1391.68C2086.73 1394.14 2087.41 1396.14 2088.77 1397.7C2090.19 1399.25 2091.9 1400.45 2093.91 1401.29C2095.98 1402.06 2098.85 1402.97 2102.54 1404C2107 1405.23 2110.59 1406.46 2113.31 1407.69C2116.02 1408.85 2118.35 1410.69 2120.29 1413.22C2122.23 1415.67 2123.2 1419.04 2123.2 1423.3C2123.2 1426.6 2122.33 1429.71 2120.58 1432.62C2118.84 1435.53 2116.25 1437.89 2112.82 1439.7C2109.4 1441.51 2105.35 1442.41 2100.7 1442.41Z" fill="black"/>
</svg>
